<svg xmlns="http://www.w3.org/2000/svg" width="43.471" height="67.005" viewBox="0 0 43.471 67.005">
  <g id="emmy" transform="translate(-89.915)">
    <path id="Path_6" data-name="Path 6" d="M274.044,352.949a1.671,1.671,0,0,1-1.518-.972l-3.6-7.806a1.671,1.671,0,0,1,3.035-1.4l3.6,7.806a1.671,1.671,0,0,1-1.516,2.371Z" transform="translate(-155.453 -297.07)" fill="#ffc400"/>
    <g id="Group_2" data-name="Group 2" transform="translate(103.558 9.462)">
      <path id="Path_7" data-name="Path 7" d="M245.019,92.357a23.177,23.177,0,0,0,2.922.121,1.03,1.03,0,0,0,.663-.315,26.324,26.324,0,0,0,3.061-4.047c.079-.143.327-.355.521-.307.419.1,1.115.277,1.342.344a.62.62,0,0,0,.683-.324,20.89,20.89,0,0,0,.557-15.212c-.156-.391-.467-.458-.471.045-.025,2.73-.663,8.192-1.575,10.521a.535.535,0,0,1-.662.323c-.3-.118-.663-.263-.812-.319a.321.321,0,0,0-.436.175c-1.008,1.628-4.97,4.563-5.551,5.107Z" transform="translate(-238.364 -72.304)" fill="#ffc400"/>
      <path id="Path_8" data-name="Path 8" d="M213.509,145.39l-6.926-8.938a7.439,7.439,0,0,0-1.6-1.483L203,133.7a2.03,2.03,0,0,1-.841-1.7l.407-4.862c0-.01,0-.019,0-.029a8.934,8.934,0,0,1,1.562-3.659l.048-.073.023-.034c.016-.023.03-.046.043-.069a4.066,4.066,0,1,0-6.452.642s1.425,1.757.595,2.267a2.414,2.414,0,0,0-1.042.742l-2.935,3.981a1.438,1.438,0,0,0,.076,1.724l2.745,3.106a7.339,7.339,0,0,1,1.131,1.866l5.526,12.43a1.078,1.078,0,0,0,1.451.528c.477-.284,1.58-1.461,2.552-2.072,1.169-.735,4.8-1.447,5.286-1.729A.918.918,0,0,0,213.509,145.39Z" transform="translate(-194.162 -111.226)" fill="#ffc400"/>
    </g>
    <path id="Path_9" data-name="Path 9" d="M262.145,288.473a1.039,1.039,0,0,1-.9-.521l-3.473-6.03a1.04,1.04,0,0,1,1.8-1.038l3.473,6.03a1.04,1.04,0,0,1-.9,1.559Z" transform="translate(-145.768 -243.672)" fill="#ffc400" opacity="0.1"/>
    <path id="Path_10" data-name="Path 10" d="M164.474,108.861a1.656,1.656,0,0,1-.968-.311l-6.613-4.761a1.666,1.666,0,0,1-.634-.909l-2-7.226a1.663,1.663,0,0,1,3.207-.886l1.839,6.66,6.135,4.418a1.664,1.664,0,0,1-.971,3.016Z" transform="translate(-55.874 -81.305)" fill="#ffc400"/>
    <path id="Path_11" data-name="Path 11" d="M235.908,401.872c0-3.5-5.431-6.339-12.129-6.339s-12.129,2.838-12.129,6.339Z" transform="translate(-105.803 -343.77)" fill="#ffc400"/>
    <rect id="Rectangle_7" data-name="Rectangle 7" width="25.968" height="7.605" transform="translate(104.991 56.973)" fill="#ffc400"/>
    <g id="Group_3" data-name="Group 3" transform="translate(103.604 55.152)">
      <path id="Path_12" data-name="Path 12" d="M221.875,424.2a1.386,1.386,0,1,0,0-2.773H195.906a1.386,1.386,0,1,0,0,2.773Z" transform="translate(-194.52 -421.43)" fill="#ffc400"/>
      <path id="Path_13" data-name="Path 13" d="M221.875,485.641a1.386,1.386,0,1,0,0-2.773H195.906a1.386,1.386,0,1,0,0,2.773Z" transform="translate(-194.52 -474.828)" fill="#ffc400"/>
    </g>
    <path id="Path_14" data-name="Path 14" d="M132,62.39V58.727a2.424,2.424,0,0,0-1.04-4.615h-1.837c-2.012-1.783-5.354-2.981-9.113-3.3l-1.6-3.473c.782-.307,1.99-.629,2.857-.86a9,9,0,0,0,1.831-.582,2.055,2.055,0,0,0,1-1.36,1.9,1.9,0,0,0-.366-1.545l-6.918-8.928a8.383,8.383,0,0,0-1.87-1.732l-1.977-1.268a.918.918,0,0,1-.286-.388l.459,0a2.036,2.036,0,0,0,1.436-.659,29.387,29.387,0,0,0,3.016-3.926c.413.1.724.184.837.218a1.65,1.65,0,0,0,1.912-.855c1.506-3.013,3-10.039.592-16.063a1.351,1.351,0,0,0-1.476-.947,1.29,1.29,0,0,0-1,1.368,42.714,42.714,0,0,1-1.337,9.68l-.3-.118a1.331,1.331,0,0,0-1.548.405c.01-.13.016-.26.016-.39a5.106,5.106,0,1,0-10.168.66l-.771-.556-1.664-6.023a7.676,7.676,0,0,0,.476-11.1c-.035-.042-.071-.082-.108-.118s-.071-.068-.112-.1A7.685,7.685,0,0,0,92.084,13.036c.027.031.053.063.083.093s.073.069.115.1a7.661,7.661,0,0,0,5.312,2.148l1.788,6.472a2.714,2.714,0,0,0,1.029,1.476l4.175,3.005-1.615,2.191a2.489,2.489,0,0,0,.134,3.029l2.745,3.107a6.4,6.4,0,0,1,.939,1.549c.007.017.014.034.021.051l5.527,12.433a2.142,2.142,0,0,0,1.25,1.134l.557,1.208a14.868,14.868,0,0,0-7.316,3.078h-1.837a2.424,2.424,0,0,0-1.04,4.615V62.39A2.424,2.424,0,0,0,104.991,67H130.96A2.424,2.424,0,0,0,132,62.39ZM116.577,21.514l.293.116a1.5,1.5,0,0,0,1.162-.027,1.61,1.61,0,0,0,.852-.882,26.9,26.9,0,0,0,1.193-5.442,20.334,20.334,0,0,1-1.452,8.93c-.32-.083-.727-.184-1-.25a1.587,1.587,0,0,0-1.68.814,25.323,25.323,0,0,1-2.9,3.824h-.312L113,25.459V25.42a4.055,4.055,0,0,1,.141-.648A23.208,23.208,0,0,0,116.577,21.514Zm-6.4-5.153a3.027,3.027,0,0,1,2.583,4.6l-.015.026-.016.025-.024.036-.037.056a10.9,10.9,0,0,0-1.64,3.583,2.685,2.685,0,0,0-.845-.993l-1.429-1.029a6.769,6.769,0,0,0-.741-1.16c-.017-.022-.036-.044-.055-.064a3.026,3.026,0,0,1,2.22-5.082Zm-7.036-8.671a5.079,5.079,0,0,1-1.879.749c.337-.412.645-.824.919-1.23A3.31,3.31,0,0,1,103.137,7.691Zm-1.621-3.906a3.339,3.339,0,0,1-.337,1.01c-.487-.094-1-.166-1.523-.218A4.845,4.845,0,0,1,101.516,3.785ZM99.979,6.708a17.919,17.919,0,0,1-1.572,1.784c-.112.112-.224.22-.335.326-.153,0-.307.006-.466.006a17.894,17.894,0,0,1-2.374-.15A17.9,17.9,0,0,1,96.8,6.89c.112-.112.223-.22.334-.326.153,0,.308-.006.467-.006A17.9,17.9,0,0,1,99.979,6.708ZM97.606,2.079a5.584,5.584,0,0,1,1.748.28,15.511,15.511,0,0,0-3.06,2.159,15.165,15.165,0,0,0-3.692.638A5.616,5.616,0,0,1,97.606,2.079ZM92.075,7.691a5.073,5.073,0,0,1,1.877-.748c-.334.407-.643.818-.921,1.228A3.312,3.312,0,0,1,92.075,7.691Zm1.62,3.906a3.344,3.344,0,0,1,.337-1.01c.487.094,1,.166,1.523.218A4.852,4.852,0,0,1,93.695,11.6Zm3.664,1.7a5.576,5.576,0,0,1-1.5-.274,15.516,15.516,0,0,0,3.059-2.159,15.157,15.157,0,0,0,3.692-.638,5.63,5.63,0,0,1-1.073,1.467,2.7,2.7,0,0,0-4.177,1.6Zm4.266,8.344a.627.627,0,0,1-.238-.341l-2-7.226a.624.624,0,1,1,1.2-.332l1.839,6.66a1.039,1.039,0,0,0,.395.567l6.137,4.419a.624.624,0,0,1-.725,1.015Zm7.1,13.8a8.325,8.325,0,0,0-1.312-2.156l-2.745-3.106a.414.414,0,0,1-.019-.418l1.629-2.21.753.542a2.7,2.7,0,0,0,3.714-.547l-.218,2.605a3.078,3.078,0,0,0,1.316,2.665l1.977,1.268a6.508,6.508,0,0,1,1.341,1.245l6.815,8.795c-.258.086-.8.228-1.241.347a17.707,17.707,0,0,0-3.995,1.376,14.432,14.432,0,0,0-1.8,1.439c-.226.2-.524.468-.676.581a.112.112,0,0,1-.027-.017Zm8.96,15.288q-.689.008-1.364.055l-.639-1.386c.192-.156.405-.346.647-.562.109-.1.224-.2.343-.3Zm.294,2.076a19.14,19.14,0,0,1,7.17,1.31H110.806A19.144,19.144,0,0,1,117.975,52.8ZM130.96,64.925H104.991a.347.347,0,1,1,0-.693H130.96a.347.347,0,1,1,0,.693Zm-24.929-2.773V58.964h23.89v3.188Zm24.929-5.267H104.991a.347.347,0,1,1,0-.693H130.96a.347.347,0,1,1,0,.693Z" fill="#ffc400"/>
  </g>
</svg>
