<svg xmlns="http://www.w3.org/2000/svg" width="9.533" height="15.342" viewBox="0 0 9.533 15.342">
  <g id="Group_1" data-name="Group 1" transform="translate(-807.363 -636.57)">
    <path id="Path_1" data-name="Path 1" d="M1027.14,669.912a25.139,25.139,0,0,1-3.295-5.171,14.02,14.02,0,0,1-1.128-2.786,11.8,11.8,0,0,1-.353-2.794,5.376,5.376,0,0,1,1.325-3.124,5.8,5.8,0,0,1,1.658-1.16,5.433,5.433,0,0,1,1.793-.3,3.809,3.809,0,0,1,1.772.3,5.033,5.033,0,0,1,1.731,1.16,5.106,5.106,0,0,1,1.253,3.124,11.1,11.1,0,0,1-.351,2.794,15.141,15.141,0,0,1-1.1,2.786A24.8,24.8,0,0,1,1027.14,669.912Z" transform="translate(-215 -18)" fill="#14a76c"/>
    <circle id="Ellipse_1" data-name="Ellipse 1" cx="2.944" cy="2.944" r="2.944" transform="translate(809.196 638.325)" fill="#192126"/>
  </g>
</svg>
