<svg xmlns="http://www.w3.org/2000/svg" viewBox="2773 185 354.169 206.447">
  <defs>
    <style>
      .cls-1 {
        fill: #0a7b4d;
      }

      .cls-2 {
        fill: #035f3a;
      }

      .cls-3 {
        fill: #14a76c;
      }
    </style>
  </defs>
  <g id="anom-logo" transform="translate(2773 185)">
    <g id="Group_1" data-name="Group 1">
      <path id="Path_7" data-name="Path 7" class="cls-1" d="M65.951,111.1v4.478H54.361V104.447L0,73.28V188.491l4.679,2.781v-5.955H16.262V196.9H14.15l56.62,33.647V113.865ZM16.262,176.44H4.679V164.857H16.262Zm0-20.46H4.679V144.4H16.262Zm0-20.286H4.679V124.1H16.262Zm0-20.292H4.679V103.839H16.262Zm0-20.286H4.679V83.533H16.262ZM65.951,217.359H54.361V205.776h11.59Zm0-20.46H54.361V185.316h11.59Zm0-20.46H54.361V164.857h11.59Zm0-20.286H54.361v-11.59h11.59Zm0-20.292H54.361V124.279h11.59Z" transform="translate(0 -24.3)"/>
      <path id="Path_8" data-name="Path 8" class="cls-2" d="M155.175,169.439l-7.426,4.505-6.016-9.9,2.119-1.29-5.541-3.275L113.46,173.6v7.613l3.135-1.9,6.016,9.9-9.144,5.554v43.887L120.3,234.5l6.016,9.906-9.906,6.016-2.941-4.846V259L208.8,201.134Zm-30.96,5.24,9.9-6.016,6.016,9.906-9.906,6.016Zm9.712,65.1-6.016-9.906,9.9-6.016,6.016,9.9Zm17.525-10.641-6.016-9.906,9.906-6.016,6.016,9.906Zm17.472-10.6-6.016-9.906,9.9-6.016,6.016,9.9Zm11.49-20.526L190.319,192l6.016,9.906-9.9,6.016Z" transform="translate(-37.624 -52.884)"/>
      <path id="Path_9" data-name="Path 9" class="cls-3" d="M71.271,0,66.024,3.128l7.947,4.679L68.116,17.833,58.15,11.924l3.676-6.276L16.376,32.685l3.135,1.831L13.655,44.542,4.993,39.435,0,42.423,283.079,206.447l3.509-2.072-1.711-1,5.855-10.026,7.285,4.264,44.355-26.161,2.834-4.839,2.674,1.577,5.24-3.088ZM31.221,54.808,21.195,48.953,27.05,38.927l10.026,5.855ZM48.866,65.142,38.84,59.287,44.7,49.261l10.026,5.855ZM66.378,75.395,56.352,69.54l5.855-10.026,10.026,5.855ZM222.007,94.478l10.026,5.855-5.855,10.026L216.152,104.5Zm-17.479-10.26,10.026,5.855L208.7,100.1l-10.026-5.855Zm-17.5-10.246,9.993,5.855-5.855,10.026-10.033-5.875ZM169.478,63.718,179.5,69.573,173.649,79.6l-10.026-5.855ZM151.866,53.4l10.026,5.855-5.855,10.026-10.026-5.855Zm-17.519-10.26L144.373,49l-5.855,10.026-10.026-5.855ZM116.708,32.812l10.026,5.855-5.855,10.026-10.026-5.855ZM99.2,22.558l10.026,5.855-5.855,10.026L93.341,32.584ZM81.544,12.225,91.57,18.047,85.715,28.073,75.689,22.217ZM84,85.748,73.971,79.893l5.855-10.026,10.026,5.855Zm17.525,10.267L91.5,90.16l5.855-10.026,10.026,5.855Zm17.619,10.26-10.026-5.855,5.855-10.026L125,96.249Zm17.525,10.26-9.993-5.855,5.855-10.026,9.993,5.855Zm17.505,10.253-10.026-5.855L150,110.907l10.026,5.855Zm17.505,10.253-10.026-5.855,5.855-10.026,10.026,5.855Zm17.539,10.273-10.026-5.855,5.855-10.026,9.993,5.855Zm17.619,10.32-10.026-5.855,5.855-10.026,10.026,5.855Zm17.559,10.28-10.026-5.855,5.855-10.026,10.026,5.855Zm17.565,10.307-10.026-5.855,5.855-10.026,10.026,5.855Zm1.751-57.609-10.026-5.855,5.855-10.026,9.993,5.855Zm15.921,67.962-10.026-5.855,5.855-10.026,10.026,5.855Zm1.711-57.642-10.026-5.855,5.855-10.026,10.026,5.855Zm15.981,68L267.3,193.073l5.855-10.026,10.026,5.855Zm1.577-57.716-10.026-5.855,5.855-10.026,10.026,5.855Zm17.545,10.273-10.026-5.855,5.855-10.026,10.026,5.855Zm17.672,10.353-10.026-5.855,5.855-10.026,10.026,5.855ZM331.8,172.192l-10.026-5.855,5.855-10.026,10.026,5.855Z"/>
      <path id="Path_10" data-name="Path 10" class="cls-1" d="M489.951,40.1v4.478h-11.59V33.447L424,2.28V117.491l4.679,2.781v-5.955h11.583V125.9H438.15l56.62,33.647V42.865ZM440.262,105.44H428.679V93.857h11.583Zm0-20.46H428.679V73.4h11.583Zm0-20.286H428.679V53.1h11.583Zm0-20.292H428.679V32.839h11.583Zm0-20.286H428.679V12.533h11.583Zm49.688,122.243h-11.59V134.776h11.59Zm0-20.46h-11.59V114.316h11.59Zm0-20.46h-11.59V93.857h11.59Zm0-20.286h-11.59V73.564h11.59Zm0-20.292h-11.59V53.279h11.59Z" transform="translate(-140.6 -0.756)"/>
      <path id="Path_11" data-name="Path 11" class="cls-2" d="M327.1,93.425l7.426-4.5,6.015,9.9-2.119,1.29,5.541,3.275L368.81,89.261V81.654l-3.135,1.9-6.016-9.9,9.144-5.534V24.219l-6.838,4.151-6.016-9.906,9.906-6.016,2.948,4.879V3.88L273.47,61.73Zm30.947-5.247-9.9,6.016-6.016-9.906,9.906-6.016Zm-9.712-65.1,6.016,9.906L344.447,39l-6.016-9.9ZM330.818,33.724l6.016,9.906-9.906,6.016-6.016-9.906Zm-17.472,10.6,6.016,9.906-9.9,6.016-6.015-9.9Zm-11.49,20.526-9.906,6.016-6.016-9.906,9.9-6.016Z" transform="translate(-90.684 -1.287)"/>
    </g>
  </g>
</svg>
