<svg xmlns="http://www.w3.org/2000/svg" width="19.24" height="67" viewBox="0 0 19.24 67">
  <g id="oscar" transform="translate(-182.485)">
    <path id="Path_2" data-name="Path 2" d="M211.668,10.253l-2.395-1.018A2.206,2.206,0,0,1,207.9,6.648l.727-2.682a2.935,2.935,0,0,0-.614-2.689,3.7,3.7,0,0,0-5.593,0,2.932,2.932,0,0,0-.615,2.69l.727,2.682a2.205,2.205,0,0,1-1.37,2.586l-2.395,1.018a1.853,1.853,0,0,0-1.186,1.88l.942,8.73,1.705.281-.445,6.9a8.825,8.825,0,0,0,1.268,5.125l.572.949-.682,3.159a7.8,7.8,0,0,0,.1,3.709l1.353,4.962a2.475,2.475,0,0,1-.411,2.133l-1.446,1.969h9.355l-1.446-1.969a2.486,2.486,0,0,1-.411-2.133l1.355-4.962a7.8,7.8,0,0,0,.1-3.709l-.684-3.159.572-.949a8.814,8.814,0,0,0,1.268-5.125l-.445-6.9,1.705-.281.944-8.73A1.853,1.853,0,0,0,211.668,10.253Z" transform="translate(-13.112 0)" fill="#131a1f"/>
    <path id="Path_4" data-name="Path 4" d="M213.243,381.3v4.667H198.086V381.3h15.157Z" transform="translate(-13.559 -331.408)" fill="#131a1f"/>
    <path id="Path_5" data-name="Path 5" d="M201.725,415.788v12.59h-19.24v-12.59h19.24Z" transform="translate(0 -361.378)" fill="#131a1f"/>
  </g>
</svg>
